<?xml version="1.0" encoding="utf-8"?>
<!-- Generator: Adobe Illustrator 21.0.2, SVG Export Plug-In . SVG Version: 6.00 Build 0)  -->
<svg version="1.1" id="Layer_1" xmlns="http://www.w3.org/2000/svg" xmlns:xlink="http://www.w3.org/1999/xlink" x="0px" y="0px"
	 viewBox="0 0 1366 768" style="enable-background:new 0 0 1366 768;" xml:space="preserve">
<style type="text/css">
	.st0{fill:none;}
	.st1{fill:#59BDC5;}
	.st2{fill:#FAE3A8;}
	.st3{fill:#1C1C1B;}
	.st4{fill:#DDEEF0;}
	.st5{fill:url(#SVGID_1_);}
</style>
<pattern  width="170.6" height="170.6" patternUnits="userSpaceOnUse" id="SVGID_1_2" viewBox="48.3 -229.1 170.6 170.6" style="overflow:visible;">
	<g>
		<rect x="48.3" y="-229.1" class="st0" width="170.6" height="170.6"/>
		<g>
			<rect x="48.3" y="-229.1" class="st0" width="170.6" height="170.6"/>
			<g>
				<rect x="48.3" y="-229.1" class="st1" width="170.6" height="170.6"/>
				<g>
					<path class="st2" d="M140.6-212.9c0.4-0.2,0.4-0.5,0.2-0.9c0-0.6-0.3-0.7-1-0.3c-2,0.3-3.9,0.7-5.9,0.9
						c-0.1,0.3-0.6,0.5-0.7,0.1c-0.4-1-0.9-2.1-1.5-3c-0.5-0.9-1.3-2.2-2.2-2.7c-1.1-0.6-1.3,1.6-1.4,2.4c-0.2,1.3-0.2,2.6-0.2,3.9
						c0,0.1,0,0.1-0.1,0.2c0.1,0.1,0.1,0.3-0.1,0.5c-1,0.7-2,1.3-3.1,1.9c-0.4,0.3-0.9,0.5-1.3,0.8c-0.4,0.2-1.4,0.5-1.6,0.9
						c-0.4,0.1-0.3,0.2,0.3,0.2c0.3,0.1,0.6,0.2,0.9,0.4c0.5,0.2,0.9,0.4,1.4,0.5c1,0.4,2,0.7,2.9,1.2c0.1,0.1,0.2,0.2,0.2,0.3
						c0.1,0.1,0.1,0.2,0.1,0.3c-0.7,2.5-1.2,4.9-1.1,7.5c2.3-1.3,4.3-3,6-5l0,0c0-0.2,0.2-0.3,0.4-0.3c1.1,0.3,2.1,0.6,3.1,0.9
						c0.8,0.3,3,1.5,3.3,0.1c0.1-0.6-0.8-2.3-1-2.9c-0.4-1-0.8-1.9-1.2-2.9c-0.1-0.2,0-0.4,0.2-0.4c-0.1-0.2-0.1-0.4,0-0.5
						c0.7-0.9,1.5-1.7,2.2-2.6C139.9-211.9,140.4-212.4,140.6-212.9z"/>
					<path class="st3" d="M141.4-212.4c0.4-0.6,1.1-1.4,0.5-2.2s-1.8-0.4-2.6-0.2c-1.8,0.3-3.7,0.7-5.5,1.1c-0.5-1.4-1.3-2.8-2.2-4
						c-0.5-0.7-1.7-2.5-2.8-2.3c-1,0.2-1.2,1.9-1.4,2.7c-0.3,1.7-0.4,3.3-0.1,5c0,0,0,0,0,0.1c-1.6,0.8-3.1,1.6-4.7,2.5
						c-0.6,0.3-2.1,0.8-2.1,1.6c0,0.8,1.2,1.1,1.7,1.3c1.5,0.6,3,1.3,4.6,1.6c-1.1,2.5-1.4,5.4-1.2,8.1c0,0.3,0.3,0.5,0.6,0.4
						c2.6-1.4,4.9-3.2,6.8-5.5l0,0c1.6,0.6,3.2,1.1,4.8,1.6c0.8,0.2,1.7,0.6,2.2-0.2c0.6-0.8-0.1-2.2-0.4-3c-0.5-1.5-1.1-3-1.8-4.3
						c0,0,0.1,0,0.1-0.1C139.2-209.6,140.3-211,141.4-212.4z M140.8-213.7c0.2,0.3,0.1,0.6-0.2,0.9c-0.2,0.5-0.7,0.9-1,1.3
						c-0.7,0.9-1.4,1.8-2.2,2.6c-0.1,0.2-0.1,0.4,0,0.5c-0.2,0.1-0.3,0.2-0.2,0.4c0.4,1,0.8,1.9,1.2,2.9c0.2,0.6,1.2,2.3,1,2.9
						c-0.3,1.4-2.5,0.2-3.3-0.1c-1-0.3-2.1-0.6-3.1-0.9c-0.2-0.1-0.4,0.1-0.4,0.3l0,0c-1.7,2-3.7,3.7-6,5c-0.1-2.6,0.4-5,1.1-7.5
						c0-0.1,0-0.2-0.1-0.3c0-0.1-0.1-0.2-0.2-0.3c-0.9-0.5-1.9-0.8-2.9-1.2c-0.5-0.2-0.9-0.4-1.4-0.5c-0.3-0.1-0.6-0.2-0.9-0.4
						c-0.6,0-0.7-0.1-0.3-0.2c0.2-0.3,1.2-0.7,1.6-0.9c0.4-0.3,0.9-0.5,1.3-0.8c1.1-0.6,2.1-1.2,3.1-1.9c0.2-0.1,0.2-0.3,0.1-0.5
						c0,0,0.1-0.1,0.1-0.2c0-1.3,0-2.6,0.2-3.9c0.1-0.8,0.3-3,1.4-2.4c0.9,0.5,1.6,1.9,2.2,2.7c0.6,1,1,2,1.5,3
						c0.2,0.4,0.7,0.2,0.7-0.1c2-0.2,3.9-0.6,5.9-0.9C140.5-214.4,140.8-214.3,140.8-213.7z"/>
				</g>
				<g>
					<path class="st2" d="M175.1-83.1c0.1-0.3,0-0.5-0.2-0.7c-0.3-0.4-0.5-0.3-0.7,0.2c-1.1,1-2.2,2.1-3.4,3.1
						c0.1,0.2-0.2,0.6-0.4,0.4c-0.7-0.5-1.4-0.9-2.2-1.3c-0.7-0.3-1.8-0.9-2.5-0.8c-1,0.1-0.1,1.6,0.1,2.1c0.4,0.9,1,1.8,1.6,2.6
						v0.1c0.1,0,0.2,0.2,0.1,0.3c-0.4,0.8-0.8,1.7-1.2,2.5c-0.2,0.4-0.4,0.7-0.5,1.1c-0.1,0.3-0.6,0.9-0.6,1.2
						c-0.2,0.3-0.1,0.3,0.3,0c0.3-0.1,0.5-0.1,0.7-0.2c0.4-0.1,0.7-0.2,1.1-0.3c0.8-0.2,1.5-0.4,2.3-0.5c0.1,0,0.2,0,0.2,0.1
						c0.1,0,0.1,0.1,0.2,0.1c0.6,1.9,1.4,3.6,2.5,5.3c0.9-1.8,1.5-3.7,1.7-5.8l0,0c-0.1-0.1,0-0.3,0.2-0.4c0.8-0.3,1.6-0.5,2.4-0.7
						c0.6-0.2,2.6-0.3,2.1-1.4c-0.2-0.5-1.5-1.1-1.9-1.4c-0.6-0.5-1.3-0.9-2-1.3c-0.1-0.1-0.1-0.2-0.1-0.4c-0.1-0.1-0.2-0.2-0.2-0.4
						c0.1-0.9,0.2-1.7,0.3-2.6C175.1-82.2,175.2-82.7,175.1-83.1z"/>
					<path class="st3" d="M175.8-83.1c0-0.6,0.1-1.4-0.6-1.6c-0.7-0.3-1.3,0.6-1.7,1c-1,1-2.1,2-3,3c-0.9-0.7-2-1.2-3.1-1.6
						c-0.7-0.2-2.1-0.9-2.8-0.3c-0.6,0.6,0.1,1.7,0.3,2.3c0.5,1.2,1.2,2.3,2.1,3.2l0,0c-0.7,1.2-1.3,2.4-1.9,3.6
						c-0.2,0.4-1,1.4-0.7,1.9c0.3,0.6,1.2,0.2,1.6,0.1c1.2-0.3,2.5-0.5,3.6-0.9c0.4,2.1,1.4,4,2.7,5.7c0.2,0.2,0.4,0.2,0.6,0
						c1.1-2,1.8-4.1,2-6.4l0,0c1.3-0.3,2.5-0.7,3.8-1c0.6-0.2,1.3-0.3,1.4-1.1c0-0.8-1-1.3-1.5-1.7c-1-0.7-1.9-1.4-3-2V-79
						C175.6-80.4,175.8-81.7,175.8-83.1z M174.9-83.7c0.3,0.1,0.4,0.3,0.2,0.7c0.1,0.4,0,0.9-0.1,1.3c-0.1,0.9-0.1,1.7-0.3,2.6
						c0,0.2,0.1,0.3,0.2,0.4c-0.1,0.1-0.1,0.3,0.1,0.4c0.6,0.5,1.3,0.9,2,1.3c0.4,0.3,1.7,1,1.9,1.4c0.4,1.1-1.5,1.2-2.1,1.4
						c-0.8,0.2-1.6,0.5-2.4,0.7c-0.2,0.1-0.2,0.2-0.2,0.4l0,0c-0.2,2-0.8,3.9-1.7,5.8c-1.1-1.6-1.9-3.4-2.5-5.3
						c0-0.1-0.1-0.1-0.2-0.1c0-0.1-0.1-0.1-0.2-0.1c-0.8,0.1-1.6,0.3-2.3,0.5c-0.4,0.1-0.7,0.2-1.1,0.3c-0.3,0.1-0.5,0.1-0.7,0.2
						c-0.4,0.2-0.5,0.2-0.3,0c0-0.3,0.5-0.9,0.6-1.2c0.2-0.4,0.4-0.7,0.5-1.1c0.4-0.8,0.8-1.7,1.2-2.5c0.1-0.2,0-0.3-0.1-0.3V-77
						c-0.6-0.8-1.1-1.7-1.6-2.6c-0.3-0.6-1.1-2-0.1-2.1c0.8-0.1,1.8,0.5,2.5,0.8c0.8,0.4,1.5,0.8,2.2,1.3c0.3,0.2,0.5-0.2,0.4-0.4
						c1.2-1,2.2-2.1,3.4-3.1C174.4-84,174.6-84.1,174.9-83.7z"/>
				</g>
				<g>
					<path class="st2" d="M81.5-169.4c0.1-0.3,0-0.5-0.2-0.7c-0.3-0.4-0.5-0.3-0.7,0.2c-1.1,1-2.2,2.1-3.4,3.1
						c0.1,0.2-0.2,0.6-0.4,0.4c-0.7-0.5-1.4-0.9-2.2-1.3c-0.7-0.3-1.8-0.9-2.5-0.8c-1,0.1-0.1,1.6,0.1,2.1c0.4,0.9,1,1.8,1.6,2.6
						v0.1c0.1,0,0.2,0.2,0.1,0.3c-0.4,0.8-0.8,1.7-1.2,2.5c-0.2,0.4-0.4,0.7-0.5,1.1c-0.1,0.3-0.6,0.9-0.6,1.2
						c-0.2,0.3-0.1,0.3,0.3,0c0.3-0.1,0.5-0.1,0.7-0.2c0.4-0.1,0.7-0.2,1.1-0.3c0.8-0.2,1.5-0.4,2.3-0.5c0.1,0,0.2,0,0.2,0.1
						c0.1,0,0.1,0.1,0.2,0.1c0.6,1.9,1.4,3.6,2.5,5.3c0.9-1.8,1.5-3.7,1.7-5.8l0,0c-0.1-0.1,0-0.3,0.2-0.4c0.8-0.3,1.6-0.5,2.4-0.7
						c0.6-0.2,2.6-0.3,2.1-1.4c-0.2-0.5-1.5-1.1-1.9-1.4c-0.6-0.5-1.3-0.9-2-1.3c-0.1-0.1-0.1-0.2-0.1-0.4c-0.1-0.1-0.2-0.2-0.2-0.4
						c0.1-0.9,0.2-1.7,0.3-2.6C81.4-168.5,81.5-169,81.5-169.4z"/>
					<path class="st3" d="M82.1-169.4c0-0.6,0.1-1.4-0.6-1.6c-0.7-0.3-1.3,0.6-1.7,1c-1,1-2.1,2-3,3c-0.9-0.7-2-1.2-3.1-1.6
						c-0.7-0.2-2.1-0.9-2.8-0.3c-0.6,0.6,0.1,1.7,0.3,2.3c0.5,1.2,1.2,2.3,2.1,3.2l0,0c-0.7,1.2-1.3,2.4-1.9,3.6
						c-0.2,0.4-1,1.4-0.7,1.9c0.3,0.6,1.2,0.2,1.6,0.1c1.2-0.3,2.5-0.5,3.6-0.9c0.4,2.1,1.4,4,2.7,5.7c0.2,0.2,0.4,0.2,0.6,0
						c1.1-2,1.8-4.1,2-6.4l0,0c1.3-0.3,2.5-0.7,3.8-1c0.6-0.2,1.3-0.3,1.4-1.1c0-0.8-1-1.3-1.5-1.7c-1-0.7-1.9-1.4-3-2v-0.1
						C82-166.7,82.1-168.1,82.1-169.4z M81.2-170c0.3,0.1,0.4,0.3,0.2,0.7c0.1,0.4,0,0.9-0.1,1.3c-0.1,0.9-0.1,1.7-0.3,2.6
						c0,0.2,0.1,0.3,0.2,0.4c-0.1,0.1-0.1,0.3,0.1,0.4c0.6,0.5,1.3,0.9,2,1.3c0.4,0.3,1.7,1,1.9,1.4c0.4,1.1-1.5,1.2-2.1,1.4
						c-0.8,0.2-1.6,0.5-2.4,0.7c-0.2,0.1-0.2,0.2-0.2,0.4l0,0c-0.2,2-0.8,3.9-1.7,5.8c-1.1-1.6-1.9-3.4-2.5-5.3
						c0-0.1-0.1-0.1-0.2-0.1c0-0.1-0.1-0.1-0.2-0.1c-0.8,0.1-1.6,0.3-2.3,0.5c-0.4,0.1-0.7,0.2-1.1,0.3c-0.3,0.1-0.5,0.1-0.7,0.2
						c-0.4,0.2-0.5,0.2-0.3,0c0-0.3,0.5-0.9,0.6-1.2c0.2-0.4,0.4-0.7,0.5-1.1c0.4-0.8,0.8-1.7,1.2-2.5c0.1-0.2,0-0.3-0.1-0.3v-0.1
						c-0.6-0.8-1.1-1.7-1.6-2.6c-0.3-0.6-1.1-2-0.1-2.1c0.8-0.1,1.8,0.5,2.5,0.8c0.8,0.4,1.5,0.8,2.2,1.3c0.3,0.2,0.5-0.2,0.4-0.4
						c1.2-1,2.2-2.1,3.4-3.1C80.7-170.3,81-170.4,81.2-170z"/>
				</g>
				<g>
					<path class="st2" d="M70.6-107.4c0-0.4-0.2-0.7-0.5-0.7c-0.5-0.3-0.7-0.1-0.8,0.6c-1,1.7-1.9,3.5-2.9,5.2
						c0.2,0.3,0,0.8-0.4,0.7c-1.1-0.3-2.2-0.6-3.3-0.7c-1-0.1-2.5-0.4-3.5,0c-1.2,0.5,0.4,2,1,2.6c0.9,1,1.9,1.8,3,2.6
						c0.1,0,0.1,0.1,0.1,0.2c0.2,0,0.3,0.1,0.3,0.4c-0.1,1.2-0.3,2.4-0.5,3.6c-0.1,0.5-0.2,1-0.2,1.5c-0.1,0.4-0.4,1.4-0.3,1.8
						c-0.1,0.4,0,0.4,0.4-0.1c0.3-0.2,0.6-0.3,0.9-0.5c0.4-0.3,0.9-0.5,1.3-0.8c0.9-0.5,1.7-1.1,2.7-1.5c0.1-0.1,0.2,0,0.3,0
						c0.1,0,0.2,0,0.3,0.1c1.5,2.1,3.1,4,5.2,5.5c0.4-2.6,0.3-5.2-0.2-7.8l0,0c-0.1-0.1-0.1-0.4,0.1-0.5c0.9-0.6,1.8-1.3,2.7-1.9
						c0.7-0.5,3-1.4,2.1-2.6c-0.4-0.5-2.3-0.8-2.9-1c-1-0.3-2-0.5-3-0.8c-0.2-0.1-0.3-0.2-0.2-0.4c-0.2,0-0.3-0.1-0.4-0.4
						c-0.2-1.1-0.5-2.2-0.7-3.3C70.9-106.3,70.8-106.9,70.6-107.4z"/>
					<path class="st3" d="M71.4-107.7c-0.2-0.7-0.5-1.7-1.4-1.8c-1,0-1.4,1.2-1.8,1.9c-0.9,1.6-1.8,3.3-2.5,5
						c-1.4-0.5-3-0.7-4.5-0.7c-0.9,0-3-0.2-3.5,0.8c-0.5,0.9,0.8,2.1,1.3,2.7c1.1,1.3,2.4,2.3,3.9,3.2c0,0,0,0,0.1,0
						c-0.4,1.7-0.7,3.5-1,5.2c-0.1,0.6-0.7,2.1-0.1,2.6c0.6,0.6,1.6-0.3,2.1-0.6c1.4-0.8,2.9-1.6,4.1-2.6c1.3,2.5,3.3,4.5,5.6,6
						c0.3,0.2,0.6,0.1,0.7-0.3c0.5-2.9,0.5-5.8-0.1-8.7l0,0c1.4-0.9,2.9-1.8,4.3-2.8c0.6-0.4,1.5-1,1.2-1.9c-0.3-1-1.8-1.2-2.6-1.5
						c-1.5-0.5-3-1-4.5-1.3v-0.1C72.3-104.3,71.9-106,71.4-107.7z M70-108.1c0.4,0,0.6,0.3,0.5,0.7c0.2,0.5,0.3,1.1,0.4,1.6
						c0.3,1.1,0.5,2.2,0.7,3.3c0,0.2,0.2,0.3,0.4,0.4c0,0.2,0,0.4,0.2,0.4c1,0.3,2,0.5,3,0.8c0.6,0.2,2.5,0.5,2.9,1
						c0.9,1.1-1.4,2.1-2.1,2.6c-0.9,0.6-1.8,1.2-2.7,1.9c-0.2,0.1-0.2,0.4-0.1,0.5l0,0c0.5,2.6,0.6,5.2,0.2,7.8
						c-2.1-1.5-3.7-3.4-5.2-5.5c-0.1-0.1-0.2-0.1-0.3-0.1c-0.1-0.1-0.2-0.1-0.3,0c-0.9,0.4-1.8,1-2.7,1.5c-0.4,0.3-0.9,0.5-1.3,0.8
						c-0.3,0.2-0.6,0.3-0.9,0.5c-0.4,0.4-0.5,0.5-0.4,0.1c-0.1-0.4,0.2-1.4,0.3-1.8c0.1-0.5,0.2-1,0.2-1.5c0.2-1.2,0.3-2.4,0.5-3.6
						c0-0.2-0.1-0.4-0.3-0.4c0-0.1,0-0.1-0.1-0.2c-1.1-0.8-2.1-1.6-3-2.6c-0.6-0.6-2.2-2.1-1-2.6c0.9-0.4,2.5-0.1,3.5,0
						c1.1,0.1,2.2,0.4,3.3,0.7c0.4,0.1,0.6-0.4,0.4-0.7c1-1.7,2-3.5,2.9-5.2C69.3-108.3,69.6-108.5,70-108.1z"/>
				</g>
				<g>
					<path class="st2" d="M152.5-134.9c0.7-0.3,1-0.7,0.8-1.4c0.2-1-0.3-1.3-1.5-0.9c-3.5-0.3-6.9-0.5-10.4-1
						c-0.3,0.5-1.2,0.6-1.3-0.1c-0.3-1.9-0.6-3.9-1.2-5.8c-0.5-1.7-1.2-4.3-2.5-5.6c-1.7-1.6-2.9,2.1-3.4,3.4
						c-0.9,2.1-1.5,4.3-2,6.6c0,0.1-0.1,0.2-0.2,0.3c0.1,0.3,0,0.6-0.4,0.8c-2,0.7-4,1.3-6.1,1.8c-0.9,0.2-1.7,0.5-2.6,0.7
						c-0.7,0.2-2.5,0.3-3.1,0.8c-0.7,0.1-0.6,0.3,0.4,0.5c0.5,0.3,0.9,0.7,1.4,1c0.7,0.5,1.4,1,2.1,1.5c1.5,1,3,2,4.4,3.2
						c0.2,0.2,0.2,0.4,0.2,0.6c0.1,0.2,0.1,0.3,0,0.5c-2.3,3.9-4.2,7.8-5.2,12.2c4.5-1.2,8.6-3.2,12.4-5.8l0,0
						c0.1-0.3,0.5-0.5,0.9-0.3c1.7,1,3.3,2,4.9,3c1.3,0.8,4.4,3.9,5.6,1.6c0.5-1-0.3-4.2-0.5-5.4c-0.2-1.8-0.6-3.6-0.8-5.4
						c0-0.4,0.2-0.6,0.5-0.7c-0.1-0.3,0-0.6,0.3-0.9c1.6-1.1,3.3-2.3,4.8-3.5C151-133.6,152-134.2,152.5-134.9z"/>
					<path class="st3" d="M153.6-133.8c1-0.8,2.4-1.9,1.8-3.4c-0.6-1.6-2.9-1.4-4.3-1.5c-3.3-0.2-6.5-0.5-9.8-0.5
						c-0.2-2.6-1-5.3-2-7.7c-0.6-1.4-1.7-4.9-3.7-5.1c-1.8-0.1-2.9,2.7-3.5,4c-1.3,2.7-2.1,5.5-2.4,8.4v0.1c-3,0.6-6,1.4-9,2.1
						c-1.1,0.3-3.8,0.4-4.3,1.8c-0.4,1.4,1.5,2.3,2.4,2.9c2.3,1.6,4.5,3.5,7,4.8c-3,3.8-4.8,8.5-5.7,13.3c-0.1,0.6,0.4,1,0.9,0.9
						c5-1.2,9.7-3.3,13.9-6.3c0,0,0,0,0.1-0.1c2.5,1.7,4.9,3.3,7.5,4.9c1.2,0.7,2.6,1.8,3.9,0.7c1.3-1.2,0.7-3.7,0.6-5.2
						c-0.2-2.7-0.5-5.5-1.2-8.2c0.1,0,0.1,0,0.2-0.1C148.8-129.9,151.3-131.8,153.6-133.8z M153.3-136.3c0.2,0.7,0,1.1-0.8,1.4
						c-0.6,0.7-1.6,1.3-2.3,1.8c-1.6,1.2-3.2,2.4-4.8,3.5c-0.3,0.2-0.4,0.6-0.3,0.9c-0.3,0.1-0.5,0.3-0.5,0.7
						c0.2,1.8,0.6,3.6,0.8,5.4c0.1,1.2,1,4.4,0.5,5.4c-1.2,2.3-4.3-0.8-5.6-1.6c-1.6-1-3.3-2-4.9-3c-0.4-0.2-0.7,0-0.9,0.3l0,0
						c-3.8,2.7-7.9,4.6-12.4,5.8c1-4.4,2.9-8.3,5.2-12.2c0.1-0.2,0.1-0.4,0-0.5c0.1-0.2,0-0.4-0.2-0.6c-1.3-1.2-2.9-2.2-4.4-3.2
						c-0.7-0.5-1.4-1-2.1-1.5c-0.5-0.3-0.9-0.7-1.4-1c-0.9-0.3-1.1-0.5-0.4-0.5c0.5-0.5,2.3-0.6,3.1-0.8c0.9-0.2,1.7-0.5,2.6-0.7
						c2-0.5,4.1-1.1,6.1-1.8c0.4-0.1,0.5-0.5,0.4-0.8c0.1-0.1,0.2-0.2,0.2-0.3c0.5-2.2,1.1-4.5,2-6.6c0.6-1.3,1.8-5,3.4-3.4
						c1.3,1.2,2,3.9,2.5,5.6c0.6,1.9,0.9,3.8,1.2,5.8c0.1,0.7,1.1,0.6,1.3,0.1c3.5,0.5,6.9,0.7,10.4,1
						C153-137.5,153.5-137.2,153.3-136.3z"/>
				</g>
				<g>
					<path class="st2" d="M196.7-213.6c0-0.8-0.4-1.2-1-1.2c-0.8-0.5-1.3-0.2-1.3,1.1c-1.5,3.2-2.8,6.3-4.4,9.4
						c0.4,0.4,0.1,1.3-0.5,1.2c-1.9-0.4-3.8-0.8-5.8-0.8c-1.8-0.1-4.5-0.3-6.1,0.5c-2,1,1,3.4,2.1,4.4c1.7,1.6,3.6,2.9,5.5,4.1
						c0.1,0.1,0.2,0.2,0.2,0.3c0.3,0,0.6,0.2,0.6,0.6c0,2.1-0.2,4.2-0.4,6.3c-0.1,0.9-0.2,1.8-0.2,2.7c-0.1,0.7-0.6,2.5-0.3,3.1
						c-0.2,0.7,0,0.6,0.6-0.2c0.5-0.3,1-0.7,1.4-1c0.7-0.5,1.4-1,2.1-1.5c1.5-1,2.9-2.2,4.5-3c0.2-0.1,0.4-0.1,0.6,0
						c0.2,0,0.4,0,0.5,0.2c2.9,3.5,6,6.5,9.8,9c0.4-4.6-0.1-9.1-1.3-13.6l0,0c-0.2-0.2-0.3-0.6,0-0.9c1.5-1.2,3-2.5,4.5-3.6
						c1.2-0.9,5.1-2.9,3.4-4.8c-0.8-0.8-4.1-1.1-5.2-1.4c-1.8-0.4-3.5-0.7-5.3-1.1c-0.4-0.1-0.5-0.4-0.5-0.7c-0.3,0-0.6-0.2-0.7-0.6
						c-0.5-1.9-1.1-3.8-1.7-5.7C197.4-211.7,197.2-212.8,196.7-213.6z"/>
					<path class="st3" d="M198.1-214.2c-0.5-1.2-1-3-2.6-2.9c-1.7,0.1-2.3,2.3-2.8,3.5c-1.3,3-2.7,6-3.8,9c-2.6-0.7-5.3-0.9-7.9-0.7
						c-1.6,0.1-5.2,0-6,1.8c-0.7,1.7,1.6,3.6,2.6,4.6c2.1,2.1,4.4,3.8,7.1,5.1h0.1c-0.5,3-0.8,6.1-1,9.2c-0.1,1.1-0.9,3.7,0.2,4.6
						c1.2,0.9,2.7-0.7,3.5-1.3c2.3-1.6,4.8-3.1,6.9-5c2.6,4.1,6.4,7.4,10.6,9.8c0.5,0.3,1.1,0,1.2-0.6c0.6-5.1,0.2-10.3-1.2-15.2
						v-0.1c2.4-1.7,4.8-3.6,7.1-5.4c1.1-0.9,2.5-1.9,1.9-3.4c-0.6-1.6-3.3-1.9-4.7-2.3c-2.6-0.7-5.4-1.4-8.1-1.7c0-0.1,0-0.1,0-0.2
						C200.1-208.3,199.2-211.3,198.1-214.2z M195.7-214.7c0.7,0,1.1,0.4,1,1.2c0.5,0.8,0.7,1.9,1,2.8c0.6,1.9,1.2,3.8,1.7,5.7
						c0.1,0.4,0.4,0.6,0.7,0.6c0,0.3,0.1,0.6,0.5,0.7c1.8,0.4,3.5,0.7,5.3,1.1c1.1,0.3,4.5,0.6,5.2,1.4c1.8,1.9-2.2,3.8-3.4,4.8
						c-1.5,1.2-3,2.4-4.5,3.6c-0.3,0.3-0.3,0.7,0,0.9l0,0c1.2,4.5,1.7,9,1.3,13.6c-3.8-2.4-6.8-5.5-9.8-9c-0.1-0.2-0.3-0.2-0.5-0.2
						c-0.2-0.1-0.4-0.1-0.6,0c-1.6,0.8-3,2-4.5,3c-0.7,0.5-1.4,1-2.1,1.5c-0.5,0.3-1,0.7-1.4,1c-0.6,0.8-0.8,0.9-0.6,0.2
						c-0.3-0.7,0.2-2.4,0.3-3.1c0.1-0.9,0.2-1.8,0.2-2.7c0.2-2.1,0.3-4.2,0.4-6.3c0-0.4-0.3-0.6-0.6-0.6c0-0.1-0.1-0.2-0.2-0.3
						c-1.9-1.2-3.8-2.5-5.5-4.1c-1.1-1-4.1-3.4-2.1-4.4c1.6-0.8,4.3-0.5,6.1-0.5c2,0.1,3.9,0.5,5.8,0.8c0.7,0.1,0.9-0.8,0.5-1.2
						c1.6-3.1,3-6.3,4.4-9.4C194.4-214.9,194.8-215.3,195.7-214.7z"/>
				</g>
				<g>
					<path class="st3" d="M139-238.5c0.1-0.1,0.1-0.1,0-0.2c-8.3-11.8-25-16.3-38.7-13.9c-12.1,2.1-22.6,9.9-28.7,20.5
						c-6.2,10.7-7,23.7-2.5,35.3c4.6,11.8,14.2,20.7,26.3,24.3c11.8,3.5,26.7,2.1,35.7-7c0.3-0.3,0.1-0.6-0.2-0.7
						c0.3-0.2,0.2-0.8-0.2-0.8c-16.9,0-28.9-15.9-26.3-32.2c2.5-15.3,18.4-29.2,34.3-24.9C138.9-238.1,139-238.3,139-238.5z
						 M138.3-238.8c-7.1-2.4-14.9-0.1-20.9,4c-10.5,7.1-16.3,20-13.6,32.5c2.7,12.6,13.8,22.1,26.7,22l0,0
						c-10.1,10.3-27.6,10.5-40.1,4.9c-22.5-10-30.1-39.2-16.1-59.3c6.9-9.9,17.9-16.5,30-17.5S130.6-248.8,138.3-238.8z"/>
					<path class="st4" d="M117.5-234.8c6-4.1,13.8-6.4,20.9-4c-7.8-10-22-14.4-34.2-13.4c-12.1,1-23.1,7.6-30,17.5
						c-13.9,20.1-6.3,49.3,16.2,59.4c12.5,5.6,30,5.4,40.1-4.9l0,0c-13,0-24.1-9.5-26.7-22C101.2-214.8,107-227.6,117.5-234.8z
						 M102.8-221.7c0-0.5,0.7-0.5,0.7,0c0,2.7-2.2,5.4-5.1,5.4c-2.7,0-5.4-2.4-5.1-5.2c0-0.2,0.3-0.3,0.4-0.1
						c0.5,2.2,1.8,4.3,4.3,4.4C100.7-216.9,102.8-219.2,102.8-221.7z M90.2-226.7c0.1,0.3-0.3,0.4-0.5,0.2c-0.1-0.2-0.2-0.5-0.3-0.6
						c-0.1-0.1-0.4-0.1-0.5,0c-0.3,0.1-0.7,0.4-0.7,0.7s-0.5,0.3-0.5,0c0-0.6,0.4-1.1,1-1.3c0.3-0.1,0.6-0.1,0.8,0
						C89.9-227.5,90-227,90.2-226.7z M83.6-222.2c0-0.5,0.8-0.5,0.7,0c-0.1,2.6-2.1,4.9-4.8,4.8c-2.3-0.1-4.7-2.2-4.3-4.6
						c0-0.2,0.2-0.1,0.3,0c0.7,1.8,1.6,3.7,3.9,3.8C81.7-218,83.6-219.9,83.6-222.2z"/>
					<path class="st3" d="M103.5-221.7c0-0.5-0.7-0.5-0.7,0c0,2.6-2.1,4.8-4.8,4.6c-2.4-0.2-3.8-2.3-4.3-4.4c0-0.2-0.4-0.2-0.4,0.1
						c-0.3,2.8,2.4,5.2,5.1,5.2C101.4-216.3,103.5-219,103.5-221.7z"/>
					<path class="st3" d="M89.7-226.5c0.2,0.2,0.5,0.1,0.5-0.2c-0.1-0.4-0.3-0.8-0.6-1c-0.3-0.1-0.6-0.1-0.8,0c-0.6,0.2-1,0.7-1,1.3
						c0,0.3,0.4,0.3,0.5,0c0-0.4,0.4-0.6,0.7-0.7c0.1,0,0.4-0.1,0.5,0C89.5-226.9,89.6-226.6,89.7-226.5z"/>
					<path class="st3" d="M84.4-222.2c0-0.5-0.7-0.5-0.7,0c-0.1,2.3-1.9,4.2-4.3,4.1c-2.2-0.2-3.2-2-3.9-3.8c0-0.1-0.2-0.2-0.3,0
						c-0.4,2.4,2.1,4.5,4.3,4.6C82.2-217.3,84.3-219.7,84.4-222.2z"/>
				</g>
				<g>
					<path class="st3" d="M253.1-122.4c0.1,0,0.2-0.1,0.2-0.2c0.7-14.4-9.7-28.2-22-34.7c-10.8-5.7-23.9-6.1-35.2-1.5
						c-11.5,4.7-20.1,14.4-23.7,26.3c-3.6,12.1-1.5,25.1,5.9,35.3c7.2,10,19.8,18.1,32.5,16.4c0.4-0.1,0.4-0.5,0.3-0.7
						c0.4,0,0.6-0.5,0.3-0.8c-13.3-10.4-13.1-30.3-1-41.5c11.3-10.5,32.5-11.8,42.4,1.4C252.8-122.2,253-122.3,253.1-122.4z
						 M252.8-123.1c-4.1-6.2-11.7-9.2-19-9.7c-12.6-0.8-25.1,5.7-30.7,17.3c-5.6,11.5-2.7,25.9,7.5,33.8l0,0
						c-14.3,1.9-28.2-8.6-34.6-20.7c-11.5-21.8,0.4-49.5,23.7-56.8c11.5-3.6,24.3-2.1,34.4,4.6C244.3-147.9,252.8-135.7,252.8-123.1
						z"/>
					<path class="st4" d="M233.8-132.7c7.3,0.5,14.8,3.4,19,9.7c0-12.6-8.4-24.8-18.7-31.6c-10.1-6.7-22.9-8.2-34.4-4.6
						c-23.3,7.3-35.2,35-23.7,56.8c6.4,12.1,20.4,22.6,34.6,20.7l0,0c-10.2-7.9-13.2-22.2-7.5-33.8
						C208.7-127,221.2-133.5,233.8-132.7z M214.2-131.4c0.3-0.4,0.9,0.1,0.6,0.5c-1.7,2.1-5,2.9-7.3,1.2c-2.2-1.6-2.8-5.2-0.9-7.2
						c0.1-0.2,0.4,0,0.3,0.2c-0.9,2-1.2,4.5,0.7,6.1C209.6-128.9,212.6-129.4,214.2-131.4z M207.3-143.1c-0.1,0.3-0.5,0.1-0.5-0.1
						s0.1-0.5,0.1-0.7s-0.3-0.3-0.4-0.4c-0.3-0.1-0.7-0.1-1,0.2c-0.2,0.2-0.5,0-0.4-0.3c0.4-0.5,1-0.6,1.6-0.4
						c0.3,0.1,0.5,0.3,0.6,0.5C207.6-143.9,207.4-143.4,207.3-143.1z M199.4-143.6c0.3-0.4,0.9,0.1,0.6,0.4c-1.6,2-4.7,2.5-6.7,0.8
						c-1.7-1.4-2.4-4.7-0.6-6.3c0.1-0.1,0.3,0,0.2,0.2c-0.6,1.9-1,3.9,0.7,5.4C195.3-141.4,198-141.8,199.4-143.6z"/>
					<path class="st3" d="M214.8-131c0.3-0.4-0.3-0.8-0.6-0.5c-1.6,2-4.6,2.5-6.6,0.7c-1.8-1.6-1.6-4.1-0.7-6.1
						c0.1-0.2-0.2-0.4-0.3-0.2c-1.9,2-1.3,5.6,0.9,7.2C209.8-128.1,213.1-128.8,214.8-131z"/>
					<path class="st3" d="M206.8-143.2c0,0.3,0.4,0.4,0.5,0.1c0.1-0.4,0.3-0.8,0.1-1.1c-0.1-0.2-0.4-0.4-0.6-0.5
						c-0.6-0.2-1.2-0.1-1.6,0.4c-0.2,0.2,0.2,0.5,0.4,0.3c0.3-0.3,0.7-0.3,1-0.2c0.1,0.1,0.4,0.2,0.4,0.4
						C207-143.7,206.8-143.4,206.8-143.2z"/>
					<path class="st3" d="M200-143.1c0.3-0.4-0.3-0.8-0.6-0.4c-1.4,1.7-4.1,2.2-5.8,0.6c-1.7-1.5-1.3-3.5-0.7-5.4
						c0-0.1-0.1-0.3-0.2-0.2c-1.8,1.6-1.1,4.8,0.6,6.3C195.3-140.6,198.4-141.2,200-143.1z"/>
				</g>
			</g>
			<g>
				<g>
					<path class="st3" d="M82.4-122.4c0.1,0,0.2-0.1,0.2-0.2c0.7-14.4-9.7-28.2-22-34.7c-10.8-5.7-23.9-6.1-35.2-1.5
						c-11.5,4.7-20.1,14.4-23.7,26.3c-3.6,12.1-1.5,25.1,5.9,35.3c7.2,10,19.8,18.1,32.5,16.4c0.4-0.1,0.4-0.5,0.3-0.7
						c0.4,0,0.6-0.5,0.3-0.8c-13.3-10.4-13.1-30.3-1-41.5c11.3-10.5,32.5-11.8,42.4,1.4C82.2-122.2,82.3-122.3,82.4-122.4z
						 M82.1-123.1c-4.1-6.2-11.7-9.2-19-9.7c-12.6-0.8-25.1,5.7-30.7,17.3c-5.6,11.5-2.7,25.9,7.5,33.8l0,0
						c-14.3,1.9-28.2-8.6-34.6-20.7c-11.5-21.8,0.4-49.5,23.8-56.8c11.5-3.6,24.3-2.1,34.4,4.6C73.7-147.9,82.2-135.7,82.1-123.1z"
						/>
					<path class="st4" d="M63.2-132.7c7.3,0.5,14.8,3.4,19,9.7c0-12.6-8.4-24.8-18.7-31.6c-10.1-6.7-22.9-8.2-34.4-4.6
						c-23.3,7.3-35.2,35-23.7,56.8C11.8-90.3,25.8-79.8,40-81.7l0,0c-10.2-7.9-13.2-22.2-7.5-33.8C38.1-127,50.5-133.5,63.2-132.7z
						 M43.6-131.4c0.3-0.4,0.9,0.1,0.6,0.5c-1.7,2.1-5,2.9-7.3,1.2c-2.2-1.6-2.8-5.2-0.9-7.2c0.1-0.2,0.4,0,0.3,0.2
						c-0.9,2-1.2,4.5,0.7,6.1C38.9-128.9,42-129.4,43.6-131.4z M36.6-143.1c-0.1,0.3-0.5,0.1-0.5-0.1s0.1-0.5,0.1-0.7
						s-0.3-0.3-0.4-0.4c-0.3-0.1-0.7-0.1-1,0.2c-0.2,0.2-0.5,0-0.4-0.3c0.4-0.5,1-0.6,1.6-0.4c0.3,0.1,0.5,0.3,0.6,0.5
						C36.9-143.9,36.8-143.4,36.6-143.1z M28.8-143.6c0.3-0.4,0.9,0.1,0.6,0.4c-1.6,2-4.7,2.5-6.7,0.8c-1.7-1.4-2.4-4.7-0.6-6.3
						c0.1-0.1,0.3,0,0.2,0.2c-0.6,1.9-1,3.9,0.7,5.4C24.7-141.4,27.3-141.8,28.8-143.6z"/>
				</g>
			</g>
			<g>
				<g>
					<path class="st3" d="M139-67.8c0.1-0.1,0.1-0.1,0-0.2c-8.3-11.8-25-16.3-38.7-13.9C88.2-79.8,77.7-72,71.6-61.4
						c-6.2,10.7-7,23.7-2.5,35.3C73.7-14.3,83.3-5.4,95.4-1.8c11.8,3.5,26.7,2.1,35.7-7c0.3-0.3,0.1-0.6-0.2-0.7
						c0.3-0.2,0.2-0.8-0.2-0.8c-16.9,0-28.9-15.9-26.3-32.2c2.5-15.3,18.4-29.2,34.3-24.9C138.9-67.5,139-67.7,139-67.8z
						 M138.3-68.2c-7.1-2.4-14.9-0.1-20.9,4c-10.5,7.1-16.3,20-13.6,32.5c2.7,12.6,13.8,22.1,26.7,22l0,0
						C120.4,0.6,102.9,0.8,90.4-4.8C67.9-14.9,60.3-44.1,74.2-64.2c6.9-9.9,17.9-16.5,30-17.5C116.4-82.6,130.6-78.1,138.3-68.2z"/>
					<path class="st4" d="M117.5-64.1c6-4.1,13.8-6.4,20.9-4c-7.7-10-21.9-14.4-34.1-13.4c-12.1,1-23.1,7.6-30,17.5
						C60.4-43.9,68-14.7,90.5-4.6c12.5,5.6,30,5.4,40.1-4.9l0,0c-13,0-24.1-9.5-26.7-22C101.2-44.2,107-57,117.5-64.1z M102.8-51.1
						c0-0.5,0.7-0.5,0.7,0c0,2.7-2.2,5.4-5.1,5.4c-2.7,0-5.4-2.4-5.1-5.2c0-0.2,0.3-0.3,0.4-0.1c0.5,2.2,1.8,4.3,4.3,4.4
						C100.7-46.2,102.8-48.5,102.8-51.1z M90.2-56c0.1,0.3-0.3,0.4-0.5,0.2c-0.1-0.2-0.2-0.5-0.3-0.6c-0.1-0.1-0.4-0.1-0.5,0
						c-0.3,0.1-0.7,0.4-0.7,0.7s-0.5,0.3-0.5,0c0-0.6,0.4-1.1,1-1.3c0.3-0.1,0.6-0.1,0.8,0C89.9-56.8,90-56.4,90.2-56z M83.6-51.6
						c0-0.5,0.8-0.5,0.7,0c-0.1,2.6-2.1,4.9-4.8,4.8c-2.3-0.1-4.7-2.2-4.3-4.6c0-0.2,0.2-0.1,0.3,0c0.7,1.8,1.6,3.7,3.9,3.8
						C81.7-47.3,83.6-49.3,83.6-51.6z"/>
				</g>
			</g>
		</g>
	</g>
</pattern>
<pattern  id="SVGID_1_" xlink:href="#SVGID_1_2" patternTransform="matrix(1 0 0 -1 184.3 -13972.6279)">
</pattern>
<rect class="st5" width="1366" height="768"/>
</svg>
