<?xml version="1.0" encoding="utf-8"?>
<!-- Generator: Adobe Illustrator 21.0.2, SVG Export Plug-In . SVG Version: 6.00 Build 0)  -->
<svg version="1.1" id="Layer_1" xmlns="http://www.w3.org/2000/svg" xmlns:xlink="http://www.w3.org/1999/xlink" x="0px" y="0px"
	 viewBox="0 0 1366 768" style="enable-background:new 0 0 1366 768;" xml:space="preserve">
<style type="text/css">
	.st0{fill:none;}
	.st1{fill:#8FCED4;}
	.st2{fill:#B8DFE2;}
	.st3{fill:#1C1C1B;}
	.st4{fill:#F4F4F4;}
	.st5{fill:url(#SVGID_2_);}
</style>
<pattern  width="170.6" height="170.6" patternUnits="userSpaceOnUse" id="SVGID_1_" viewBox="58.3 -179.1 170.6 170.6" style="overflow:visible;">
	<g>
		<rect x="58.3" y="-179.1" class="st0" width="170.6" height="170.6"/>
		<g>
			<rect x="58.3" y="-179.1" class="st0" width="170.6" height="170.6"/>
			<g>
				<rect x="58.3" y="-179.1" class="st1" width="170.6" height="170.6"/>
				<g>
					<path class="st2" d="M238.2-119.1c2.1-5.2-2.1-12.7-8.3-9.5c-7.1,3.6,1.6,12.7-0.8,18.3c0,0.1-0.1,0.1-0.1,0.2l0.1,0.1
						C232.8-112.1,236.6-115,238.2-119.1z"/>
					<path class="st3" d="M239.8-120.2c0.9-3.8-0.8-8.4-4.6-9.8c-3.3-1.2-7.6,0.3-8.8,3.8c-1.9,5.2,3.2,10.1,2,15.5
						c-0.1,0.4,0.4,0.7,0.7,0.5c0.1,0,0.1-0.1,0.1-0.2c2.4-5.6-6.3-14.7,0.8-18.3c6.2-3.1,10.4,4.4,8.3,9.5c-1.6,4-5.4,7-9.1,9
						c-0.1,0-0.1,0.1-0.2,0.1c-0.3,0.2-0.1,0.6,0.2,0.5C233.7-111.3,238.6-115.2,239.8-120.2z"/>
				</g>
				<g>
					<path class="st2" d="M125.2-55.5c-2-5.2,2.3-12.6,8.5-9.4c7,3.7-1.9,12.6,0.4,18.3c0,0.1,0.1,0.1,0.1,0.2l-0.1,0.1
						C130.5-48.4,126.7-51.4,125.2-55.5z"/>
					<path class="st3" d="M123.7-56.6c-0.9-3.8,1-8.4,4.8-9.7c3.3-1.1,7.6,0.5,8.7,3.9c1.8,5.3-3.4,10.1-2.3,15.5
						c0.1,0.4-0.4,0.7-0.7,0.5c-0.1,0-0.1-0.1-0.1-0.2c-2.3-5.6,6.6-14.6-0.4-18.3c-6.1-3.3-10.4,4.2-8.5,9.4c1.5,4,5.3,7.1,8.9,9.2
						c0.1,0,0.1,0.1,0.1,0.1c0.3,0.2,0.1,0.6-0.2,0.5C129.6-47.7,124.8-51.6,123.7-56.6z"/>
				</g>
				<g>
					<path class="st2" d="M158.8-35.5c2.1-5.2-2.1-12.7-8.3-9.5c-7.1,3.6,1.6,12.7-0.8,18.3c0,0.1-0.1,0.1-0.1,0.2l0.1,0.1
						C153.4-28.5,157.2-31.5,158.8-35.5z"/>
					<path class="st3" d="M160.3-36.6c0.9-3.8-0.8-8.4-4.6-9.8c-3.3-1.2-7.6,0.3-8.8,3.8c-1.9,5.2,3.2,10.1,2,15.5
						c-0.1,0.4,0.4,0.7,0.7,0.5c0.1,0,0.1-0.1,0.1-0.2c2.4-5.6-6.3-14.7,0.8-18.3c6.2-3.1,10.4,4.4,8.3,9.5c-1.6,4-5.4,7-9.1,9
						c-0.1,0-0.1,0.1-0.2,0.1c-0.3,0.2-0.1,0.6,0.2,0.5C154.3-27.8,159.1-31.6,160.3-36.6z"/>
				</g>
				<g>
					<path class="st4" d="M188.6-146.4c3-5.2,2.5-11.5-0.3-16.6c-6.1-11.1-20.2-11.8-31.3-11.8c-13.3,0-26.6-0.1-39.8,0.7
						c-10.6,0.6-29.1,0.7-33.6,12.9c-2.3,6.2-1.6,16.1,2.8,21.2c4.9,5.7,13.3,5.3,17.7-0.1c0.4-0.8,1-1.7,1.5-2.4
						c0.1-0.2,0.1-0.3,0.2-0.5c0.3-0.6,1.3-0.2,1.1,0.4c-0.5,1.4-1.3,2.7-2.3,3.8c-1,2.4-1.8,4.8-1.6,7.5c0.2,5.1,4.1,8.7,8.8,10.1
						c8.8,2.6,18-3.1,19.1-12.3c0.1-0.8,1.4-0.8,1.3,0c0.1,0.1,0.2,0.2,0.2,0.4c1.2,11.2,12.3,18.8,23.1,18.4
						c5.8-0.2,11.6-3.1,14.5-8.2c3.3-5.7,1.9-12.5-0.7-18.1c-0.2-0.5,0.2-1.2,0.8-1C177-139.9,184.5-139.4,188.6-146.4z
						 M165.7-152.2c0.8,0.6,1.4,2.4,0,2.8c-0.2,0.1-0.4,0.1-0.6,0l0,0c-0.1,0.1-0.2,0.2-0.3,0.2c-1,0-1.7-1.1-1.5-2
						C163.5-152.4,164.8-152.9,165.7-152.2z M135.8-163.2c2-0.3,4.5,1.6,3.5,3.8c-0.2,0.5-1,0.2-1-0.3c0.2-1.3-0.5-2.4-1.8-2.5
						c-0.7,0-1.3,0.1-1.9,0.4c-0.4,0.2-1.7,1.1-1,1.7c0.4,0.3-0.1,0.9-0.5,0.6c-0.8-0.5-0.8-1.4-0.3-2.1
						C133.4-162.4,134.7-163,135.8-163.2z M107.3-152.4c0.3,1.4-1.4,2.4-2.5,1.6c-0.3-0.2-0.5-0.5-0.5-0.8c-0.2-0.5-0.2-1.1,0.1-1.6
						C105.3-154.4,107.1-153.7,107.3-152.4z"/>
					<path class="st3" d="M188.7-144.1c3.9-5.1,4.2-12.2,1.6-18c-6.3-13.8-23-14.1-35.9-14c-18.1,0.1-36.8-0.9-54.7,2.6
						c-5.6,1.1-11.5,3.1-15.2,7.7c-4.3,5.5-4.1,13.6-2.4,20.1c1.5,5.6,5.6,10.3,11.6,11.2c3.4,0.5,6.6-0.5,9.1-2.4
						c-2.3,7.1,0.1,14.6,8.7,17.1c8.7,2.5,17.5-2.3,20.1-10.5c2.7,11.2,14.7,18.5,26.1,17c6.1-0.8,11.9-4.5,14.4-10.2
						c2.4-5.4,1.4-11.4-0.9-16.6C177.5-138.5,184.3-138.3,188.7-144.1z M188.3-163c2.8,5.1,3.3,11.4,0.3,16.6
						c-4,7-11.6,6.5-18.4,4.5c-0.6-0.2-1,0.5-0.8,1c2.7,5.6,4,12.4,0.7,18.1c-3,5.1-8.7,8-14.5,8.2c-10.8,0.5-22-7.2-23.1-18.4
						c0-0.2-0.1-0.3-0.2-0.4c0.1-0.8-1.2-0.8-1.3,0c-1.2,9.2-10.3,14.8-19.1,12.3c-4.7-1.4-8.6-4.9-8.8-10.1
						c-0.1-2.6,0.6-5.1,1.6-7.5c0.9-1.1,1.7-2.4,2.3-3.8c0.2-0.6-0.8-1-1.1-0.4c-0.1,0.2-0.1,0.3-0.2,0.5c-0.6,0.8-1.1,1.6-1.5,2.4
						c-4.4,5.4-12.8,5.7-17.7,0.1c-4.4-5.1-5.1-15-2.8-21.2c4.5-12.2,23-12.3,33.6-12.9c13.2-0.8,26.6-0.6,39.8-0.7
						C168.1-174.8,182.2-174.1,188.3-163z"/>
					<path class="st3" d="M165.7-149.5c1.3-0.4,0.8-2.2,0-2.8c-0.9-0.7-2.2-0.2-2.4,1c-0.2,1,0.5,2,1.5,2c0.2,0,0.3-0.1,0.3-0.2l0,0
						C165.4-149.4,165.5-149.4,165.7-149.5z"/>
					<path class="st3" d="M139.3-159.4c1-2.2-1.5-4.1-3.5-3.8c-1.1,0.2-2.4,0.7-3,1.8c-0.4,0.7-0.5,1.6,0.3,2.1
						c0.4,0.2,0.8-0.3,0.5-0.6c-0.7-0.6,0.6-1.5,1-1.7c0.6-0.3,1.3-0.5,1.9-0.4c1.4,0.1,2,1.2,1.8,2.5
						C138.3-159.1,139.1-158.9,139.3-159.4z"/>
					<path class="st3" d="M104.9-150.8c1.1,0.8,2.8-0.2,2.5-1.6c-0.3-1.2-2-2-2.9-0.8c-0.3,0.5-0.3,1.1-0.1,1.6
						C104.4-151.3,104.6-151,104.9-150.8z"/>
				</g>
				<g>
					<path class="st2" d="M222.2-150.6c2.3-1.7,7.7-4.2,4.8-7.9c-2.5-3.1-6.8-1.1-7.9,2.2c-1,2.9,0.1,5.8,1.6,8.3
						C220.6-149.1,221.2-149.9,222.2-150.6z"/>
					<path class="st3" d="M228.7-156.4c0.1-2.6-2.2-4.5-4.7-4.7c-2.9-0.2-5.2,1.9-6.1,4.5c-1.1,3.5,0.4,6.9,2.5,9.6
						c0.2,0.2,0.4,0.1,0.5-0.1c0.3,0.1,0.7-0.1,0.7-0.5c-0.2-2.2,4-3.6,5.3-5C227.9-153.7,228.7-155,228.7-156.4z M226.9-158.5
						c3,3.7-2.5,6.2-4.8,7.9c-0.9,0.7-1.5,1.5-1.6,2.6c-1.5-2.5-2.6-5.4-1.6-8.3C220.1-159.6,224.4-161.6,226.9-158.5z"/>
				</g>
				<g>
					<path class="st2" d="M146.7-89.7c2.3-1.7,7.7-4.2,4.8-7.9c-2.5-3.1-6.8-1.1-7.9,2.2c-1,2.9,0.1,5.8,1.6,8.3
						C145.1-88.2,145.7-89,146.7-89.7z"/>
					<path class="st3" d="M153.2-95.4c0.1-2.6-2.2-4.5-4.7-4.7c-2.9-0.2-5.2,1.9-6.1,4.5c-1.1,3.5,0.4,6.9,2.5,9.6
						c0.2,0.2,0.4,0.1,0.5-0.1c0.3,0.1,0.7-0.1,0.7-0.5c-0.2-2.2,4-3.6,5.3-5C152.4-92.7,153.2-94,153.2-95.4z M151.4-97.6
						c3,3.7-2.5,6.2-4.8,7.9c-0.9,0.7-1.5,1.5-1.6,2.6c-1.5-2.5-2.6-5.4-1.6-8.3C144.6-98.7,148.9-100.7,151.4-97.6z"/>
				</g>
				<g>
					<path class="st2" d="M102.7-29.8c2.3-1.7,7.7-4.2,4.8-7.9c-2.5-3.1-6.8-1.1-7.9,2.2c-1,2.9,0.1,5.8,1.6,8.3
						C101.1-28.3,101.7-29.1,102.7-29.8z"/>
					<path class="st3" d="M109.2-35.6c0.1-2.6-2.2-4.5-4.7-4.7c-2.9-0.2-5.2,1.9-6.1,4.5c-1.1,3.5,0.4,6.9,2.5,9.6
						c0.2,0.2,0.4,0.1,0.5-0.1c0.3,0.1,0.7-0.1,0.7-0.5c-0.2-2.2,4-3.6,5.3-5C108.4-32.8,109.2-34.1,109.2-35.6z M107.4-37.7
						c3,3.7-2.5,6.2-4.8,7.9c-0.9,0.7-1.5,1.5-1.6,2.6c-1.5-2.5-2.6-5.4-1.6-8.3C100.6-38.8,104.9-40.8,107.4-37.7z"/>
				</g>
				<g>
					<path class="st2" d="M209.8-123.3c-1.1-4.4,5.4-6.9,3.9-11.5c-1.2-3.9-6-3.6-7.3-0.1c-0.4,1-0.4,2.1-0.3,3.1
						c0.2,3.1,1.5,6.1,3.2,8.6c0,0,0,0,0.1,0C209.5-123.3,209.7-123.3,209.8-123.3z"/>
					<path class="st3" d="M210.8-123.1c-1-4.4,5-6.9,4-11.6c-0.6-2.6-3-4.5-5.7-4c-7.4,1.5-2.8,12.8,0,16.2c0.2,0.3,0.6-0.1,0.5-0.3
						l-0.1-0.1c0.1,0,0.3,0,0.4,0c0,0.1,0.1,0.2,0.1,0.3c0,0,0,0.1,0.1,0.1c-0.1,0-0.3,0.2-0.2,0.4c0.3,0.6,1.1,0.1,1.1-0.4
						C211-122.8,211-123,210.8-123.1z M213.8-134.9c1.4,4.6-5.1,7.1-3.9,11.5c-0.2,0-0.3,0-0.4,0.1h-0.1c-1.7-2.6-3.1-5.5-3.2-8.6
						c-0.1-1,0-2.1,0.3-3.1C207.7-138.5,212.5-138.8,213.8-134.9z"/>
				</g>
				<g>
					<path class="st2" d="M126.4-18.8c-1.1-4.4,5.4-6.9,3.9-11.5c-1.2-3.9-6-3.6-7.3-0.1c-0.4,1-0.4,2.1-0.3,3.1
						c0.2,3.1,1.5,6.1,3.2,8.6c0,0,0,0,0.1,0C126.1-18.8,126.2-18.8,126.4-18.8z"/>
					<path class="st3" d="M127.4-18.6c-1-4.4,5-6.9,4-11.6c-0.6-2.6-3-4.5-5.7-4c-7.4,1.5-2.8,12.8,0,16.2c0.2,0.3,0.6-0.1,0.5-0.3
						l-0.1-0.1c0.1,0,0.3,0,0.4,0c0,0.1,0.1,0.2,0.1,0.3c0,0,0,0.1,0.1,0.1c-0.1,0-0.3,0.2-0.2,0.4c0.3,0.6,1.1,0.1,1.1-0.4
						C127.6-18.3,127.5-18.5,127.4-18.6z M130.3-30.4c1.4,4.6-5.1,7.1-3.9,11.5c-0.2,0-0.3,0-0.4,0.1h-0.1c-1.7-2.6-3.1-5.5-3.2-8.6
						c-0.1-1,0-2.1,0.3-3.1C124.3-34,129.1-34.3,130.3-30.4z"/>
				</g>
				<g>
					<path class="st2" d="M207.9-172.1c-1.1-4.4,5.4-6.9,3.9-11.5c-1.2-3.9-6-3.6-7.3-0.1c-0.4,1-0.4,2.1-0.3,3.1
						c0.2,3.1,1.5,6.1,3.2,8.6c0,0,0,0,0.1,0C207.6-172.1,207.8-172.1,207.9-172.1z"/>
					<path class="st3" d="M208.9-171.9c-1-4.4,5-6.9,4-11.6c-0.6-2.6-3-4.5-5.7-4c-7.4,1.5-2.8,12.8,0,16.2c0.2,0.3,0.6-0.1,0.5-0.3
						l-0.1-0.1c0.1,0,0.3,0,0.4,0c0,0.1,0.1,0.2,0.1,0.3c0,0,0,0.1,0.1,0.1c-0.1,0-0.3,0.2-0.2,0.4c0.3,0.6,1.1,0.1,1.1-0.4
						C209.1-171.6,209.1-171.8,208.9-171.9z M211.9-183.7c1.4,4.6-5.1,7.1-3.9,11.5c-0.2,0-0.3,0-0.4,0.1h-0.1
						c-1.7-2.6-3.1-5.5-3.2-8.6c-0.1-1,0-2.1,0.3-3.1C205.8-187.3,210.6-187.6,211.9-183.7z"/>
				</g>
				<g>
					<path class="st4" d="M282.8-81.3c0.5-7.4-7.1-11.4-13-13.4c-13.5-4.6-28.1-4-42.2-3.6c-7.4,0.2-14.9,0.5-22.3,0.9
						c-6.8,0.4-14.1,0.5-20.7,2.2c-6.9,1.8-12.8,6.6-12.6,14.3c0.2,8.5,10.2,15.9,17.1,8.5c0.4-0.4,1.1,0.1,0.8,0.6
						c-0.2,0.3-0.5,0.6-0.7,0.9l0,0c0.2-0.2,0.5-0.5,0.7-0.7c0.5-0.5,1.2,0.2,0.7,0.7c-7.3,7.8-6.3,20.4,3.3,25.8
						c9.5,5.4,21.1-0.4,23.6-10.7c0.2-0.6,1.1-0.6,1.3,0c2,7.6,8.6,14.4,16.9,13.8c9.8-0.7,15.9-10.6,11.1-19.4
						c-0.4-0.8,0.7-1.4,1.1-0.7c0.2,0.3,0.3,0.6,0.5,0.9c3.3,2.2,6.8,4.6,11,3.6c4.5-1.1,7.8-7.4,4.9-11.5c-0.5-0.7,0.6-1.3,1.1-0.7
						c0.1,0.1,0.1,0.2,0.1,0.2C273-69.2,282.2-72.5,282.8-81.3z M246.8-79.8c0.1-0.8,1.4-0.5,1.3,0.3c-0.5,3.2-3.4,5.7-6.7,5.5
						c-3-0.3-5.7-2.9-5.5-6c0-0.4,0.7-0.6,0.8-0.1c0.6,2.4,2.3,4.8,5,4.9C244.4-75.1,246.4-77.3,246.8-79.8z M222.4-88.4
						c2.5-0.2,4.2,2.1,3.8,4.4c-0.1,0.7-1.2,0.4-1.1-0.3c0.3-1.3-0.5-2.8-1.9-3c-1.1-0.2-3.2,0.5-2.5,2c0.1,0.3-0.1,0.5-0.4,0.5
						c-0.9-0.2-0.8-1.4-0.5-2C220.3-87.7,221.4-88.3,222.4-88.4z M209.7-80c0,3.7-3.5,6-6.9,5.5c-2.3-0.4-6.9-3.4-4.5-6.1
						c0.2-0.2,0.5,0,0.5,0.2c-0.1,5.9,9.1,6.4,9.8,0.5C208.6-80.7,209.7-80.8,209.7-80z"/>
					<path class="st3" d="M269.7-94.7c6,2,13.6,6,13,13.4c-0.6,8.7-9.8,12.1-17.3,11.8c0-0.1-0.1-0.2-0.1-0.2
						c-0.5-0.7-1.7,0-1.1,0.7c3,4-0.4,10.4-4.9,11.5c-4.2,1-7.7-1.4-11-3.6c-0.2-0.3-0.3-0.6-0.5-0.9c-0.4-0.8-1.6-0.1-1.1,0.7
						c4.8,8.9-1.3,18.8-11.1,19.4c-8.4,0.6-14.9-6.2-16.9-13.8c-0.2-0.6-1.1-0.6-1.3,0c-2.5,10.3-14.1,16.1-23.6,10.7
						c-9.6-5.4-10.6-18-3.3-25.8c0.5-0.5-0.2-1.2-0.7-0.7c-0.2,0.2-0.5,0.5-0.7,0.7c-7.6,8-5.8,21.5,4.1,27
						c9.6,5.4,21.2,0.4,24.9-9.4c3,8,10.8,14.3,19.8,12.4c8.8-1.8,13.8-10.2,11.3-18.3c3.7,2.9,8.8,4.4,13,2
						c3.4-1.8,5.5-7.1,4.1-10.9c6,0.1,12.3-1.7,15.7-6.9c3-4.5,2.9-10.1-0.6-14.3c-3.8-4.6-10.2-6.6-15.8-8
						c-7.3-1.8-14.8-2.4-22.3-2.5c-16.2-0.2-32.7,0.5-48.8,2c-10.4,0.9-24.3,3.7-23.9,17c0.1,5,2.9,9.8,7.5,11.9
						c3.8,1.7,8.2,1.1,11-2c0.2-0.3,0.5-0.6,0.7-0.9c0.3-0.5-0.4-1-0.8-0.6c-6.9,7.4-16.8,0-17.1-8.5c-0.2-7.7,5.7-12.5,12.6-14.3
						c6.7-1.7,13.9-1.8,20.7-2.2c7.4-0.5,14.9-0.7,22.3-0.9C241.6-98.7,256.2-99.3,269.7-94.7z"/>
					<path class="st3" d="M248.1-79.4c0.1-0.8-1.1-1.2-1.3-0.3c-0.4,2.5-2.5,4.7-5.1,4.6c-2.7-0.1-4.4-2.5-5-4.9
						c-0.1-0.5-0.8-0.3-0.8,0.1c-0.2,3.1,2.5,5.8,5.5,6C244.7-73.7,247.6-76.3,248.1-79.4z"/>
					<path class="st3" d="M226.2-84c0.5-2.3-1.3-4.7-3.8-4.4c-1,0.1-2.1,0.6-2.6,1.5c-0.4,0.6-0.4,1.8,0.5,2
						c0.3,0.1,0.5-0.2,0.4-0.5c-0.6-1.4,1.5-2.1,2.5-2c1.4,0.3,2.2,1.7,1.9,3C225-83.6,226-83.3,226.2-84z"/>
					<path class="st3" d="M202.8-74.5c3.4,0.5,7-1.8,6.9-5.5c0-0.8-1.1-0.8-1.2,0c-0.6,5.9-9.9,5.4-9.8-0.5c0-0.2-0.3-0.4-0.5-0.2
						C195.9-77.9,200.5-74.9,202.8-74.5z"/>
				</g>
			</g>
			<g>
				<g>
					<path class="st2" d="M67.6-119.1c2.1-5.2-2.1-12.7-8.3-9.5c-7.1,3.6,1.6,12.7-0.8,18.3c0,0.1-0.1,0.1-0.1,0.2l0.1,0.1
						C62.2-112.1,66-115,67.6-119.1z"/>
					<path class="st3" d="M69.1-120.2c0.9-3.8-0.8-8.4-4.6-9.8c-3.3-1.2-7.6,0.3-8.8,3.8c-1.9,5.2,3.2,10.1,2,15.5
						c-0.1,0.4,0.4,0.7,0.7,0.5c0.1,0,0.1-0.1,0.1-0.2c2.4-5.6-6.3-14.7,0.8-18.3c6.2-3.1,10.4,4.4,8.3,9.5c-1.6,4-5.4,7-9.1,9
						c-0.1,0-0.1,0.1-0.2,0.1c-0.3,0.2-0.1,0.6,0.2,0.5C63.1-111.3,67.9-115.2,69.1-120.2z"/>
				</g>
				<g>
					<path class="st4" d="M112.2-81.3c0.5-7.4-7.1-11.4-13-13.4c-13.5-4.6-28.1-4-42.2-3.6c-7.4,0.2-14.9,0.5-22.3,0.9
						C27.9-97,20.6-96.9,14-95.2C6.9-93.4,1-88.6,1.2-80.9c0.2,8.5,10.2,15.9,17.1,8.5c0.4-0.4,1.1,0.1,0.8,0.6
						c-0.2,0.3-0.5,0.6-0.7,0.9l0,0c0.2-0.2,0.5-0.5,0.7-0.7c0.5-0.5,1.2,0.2,0.7,0.7c-7.3,7.8-6.3,20.4,3.3,25.8
						c9.5,5.4,21.1-0.4,23.6-10.7c0.2-0.6,1.1-0.6,1.3,0c2,7.6,8.6,14.4,16.9,13.8c9.8-0.7,15.9-10.6,11.1-19.4
						c-0.4-0.8,0.7-1.4,1.1-0.7c0.2,0.3,0.3,0.6,0.5,0.9c3.3,2.2,6.8,4.6,11,3.6c4.5-1.1,7.8-7.4,4.9-11.5c-0.5-0.7,0.6-1.3,1.1-0.7
						c0.1,0.1,0.1,0.2,0.1,0.2C102.4-69.2,111.5-72.5,112.2-81.3z M76.2-79.8c0.1-0.8,1.4-0.5,1.3,0.3c-0.5,3.2-3.4,5.7-6.7,5.5
						c-3-0.3-5.7-2.9-5.5-6c0-0.4,0.7-0.6,0.8-0.1c0.6,2.4,2.3,4.8,5,4.9C73.7-75.1,75.8-77.3,76.2-79.8z M51.7-88.4
						c2.5-0.2,4.2,2.1,3.8,4.4c-0.1,0.7-1.2,0.4-1.1-0.3c0.3-1.3-0.5-2.8-1.9-3c-1.1-0.2-3.2,0.5-2.5,2c0.1,0.3-0.1,0.5-0.4,0.5
						c-0.9-0.2-0.8-1.4-0.5-2C49.7-87.7,50.8-88.3,51.7-88.4z M39.1-80c0,3.7-3.5,6-6.9,5.5c-2.3-0.4-6.9-3.4-4.5-6.1
						c0.2-0.2,0.5,0,0.5,0.2c-0.1,5.9,9.1,6.4,9.8,0.5C38-80.7,39.1-80.8,39.1-80z"/>
					<path class="st3" d="M99.1-94.7c6,2,13.6,6,13,13.4c-0.6,8.7-9.8,12.1-17.3,11.8c0-0.1-0.1-0.2-0.1-0.2c-0.5-0.7-1.7,0-1.1,0.7
						c3,4-0.4,10.4-4.9,11.5c-4.2,1-7.7-1.4-11-3.6c-0.2-0.3-0.3-0.6-0.5-0.9c-0.4-0.8-1.6-0.1-1.1,0.7c4.8,8.9-1.3,18.8-11.1,19.4
						c-8.4,0.6-14.9-6.2-16.9-13.8c-0.2-0.6-1.1-0.6-1.3,0C44.3-45.4,32.7-39.6,23.2-45c-9.6-5.4-10.6-18-3.3-25.8
						c0.5-0.5-0.2-1.2-0.7-0.7c-0.2,0.2-0.5,0.5-0.7,0.7c-7.6,8-5.8,21.5,4.1,27c9.6,5.4,21.2,0.4,24.9-9.4c3,8,10.8,14.3,19.8,12.4
						c8.8-1.8,13.8-10.2,11.3-18.3c3.7,2.9,8.8,4.4,13,2c3.4-1.8,5.5-7.1,4.1-10.9c6,0.1,12.3-1.7,15.7-6.9c3-4.5,2.9-10.1-0.6-14.3
						c-3.8-4.6-10.2-6.6-15.8-8c-7.3-1.8-14.8-2.4-22.3-2.5c-16.2-0.2-32.7,0.5-48.8,2C13.5-96.8-0.4-94,0-80.7
						c0.1,5,2.9,9.8,7.5,11.9c3.8,1.7,8.2,1.1,11-2c0.2-0.3,0.5-0.6,0.7-0.9c0.3-0.5-0.4-1-0.8-0.6c-6.9,7.4-16.8,0-17.1-8.5
						C1-88.6,6.9-93.4,13.9-95.1c6.7-1.7,13.9-1.8,20.7-2.2c7.4-0.5,14.9-0.7,22.3-0.9C71-98.7,85.6-99.3,99.1-94.7z"/>
					<path class="st3" d="M77.5-79.4c0.1-0.8-1.1-1.2-1.3-0.3c-0.4,2.5-2.5,4.7-5.1,4.6c-2.7-0.1-4.4-2.5-5-4.9
						c-0.1-0.5-0.8-0.3-0.8,0.1c-0.2,3.1,2.5,5.8,5.5,6C74.1-73.7,76.9-76.3,77.5-79.4z"/>
				</g>
			</g>
			<g>
				<g>
					<path class="st2" d="M207.9-1.5c-1.1-4.4,5.4-6.9,3.9-11.5c-1.2-3.9-6-3.6-7.3-0.1c-0.4,1-0.4,2.1-0.3,3.1
						c0.2,3.1,1.5,6.1,3.2,8.6c0,0,0,0,0.1,0C207.6-1.4,207.8-1.5,207.9-1.5z"/>
					<path class="st3" d="M208.9-1.3c-1-4.4,5-6.9,4-11.6c-0.6-2.6-3-4.5-5.7-4c-7.4,1.5-2.8,12.8,0,16.2c0.2,0.3,0.6-0.1,0.5-0.3
						l-0.1-0.1c0.1,0,0.3,0,0.4,0c0,0.1,0.1,0.2,0.1,0.3c0,0,0,0.1,0.1,0.1c-0.1,0-0.3,0.2-0.2,0.4c0.3,0.6,1.1,0.1,1.1-0.4
						C209.1-1,209.1-1.2,208.9-1.3z M211.9-13c1.4,4.6-5.1,7.1-3.9,11.5c-0.2,0-0.3,0-0.4,0.1h-0.1c-1.7-2.6-3.1-5.5-3.2-8.6
						c-0.1-1,0-2.1,0.3-3.1C205.8-16.7,210.6-17,211.9-13z"/>
				</g>
			</g>
		</g>
	</g>
</pattern>
<pattern  id="SVGID_2_" xlink:href="#SVGID_1_" patternTransform="matrix(1 0 0 -1 34.4 -14238.4482)">
</pattern>
<rect class="st5" width="1366" height="768"/>
</svg>
